<svg width="14" height="15" viewBox="0 0 14 15" fill="none" xmlns="http://www.w3.org/2000/svg">
<g clip-path="url(#clip0_4_292)">
<path d="M11.7188 1.875H10.3125V0.351562C10.3125 0.158203 10.1543 0 9.96094 0H9.72656C9.5332 0 9.375 0.158203 9.375 0.351562V1.875H3.75V0.351562C3.75 0.158203 3.5918 0 3.39844 0H3.16406C2.9707 0 2.8125 0.158203 2.8125 0.351562V1.875H1.40625C0.629883 1.875 0 2.50488 0 3.28125V13.5938C0 14.3701 0.629883 15 1.40625 15H11.7188C12.4951 15 13.125 14.3701 13.125 13.5938V3.28125C13.125 2.50488 12.4951 1.875 11.7188 1.875ZM1.40625 2.8125H11.7188C11.9766 2.8125 12.1875 3.02344 12.1875 3.28125V4.6875H0.9375V3.28125C0.9375 3.02344 1.14844 2.8125 1.40625 2.8125ZM11.7188 14.0625H1.40625C1.14844 14.0625 0.9375 13.8516 0.9375 13.5938V5.625H12.1875V13.5938C12.1875 13.8516 11.9766 14.0625 11.7188 14.0625ZM9.02344 10.3125H4.10156C3.9082 10.3125 3.75 10.1543 3.75 9.96094V9.72656C3.75 9.5332 3.9082 9.375 4.10156 9.375H9.02344C9.2168 9.375 9.375 9.5332 9.375 9.72656V9.96094C9.375 10.1543 9.2168 10.3125 9.02344 10.3125Z" fill="#90908C"/>
</g>
<defs>
<clipPath id="clip0_4_292">
<rect width="13.125" height="15" fill="white"/>
</clipPath>
</defs>
</svg>
