<svg width="14" height="15" viewBox="0 0 14 15" fill="none" xmlns="http://www.w3.org/2000/svg">
<g clip-path="url(#clip0_4_287)">
<path d="M11.7188 1.875H10.3125V0.234375C10.3125 0.105469 10.207 0 10.0781 0H9.60938C9.48047 0 9.375 0.105469 9.375 0.234375V1.875H3.75V0.234375C3.75 0.105469 3.64453 0 3.51562 0H3.04688C2.91797 0 2.8125 0.105469 2.8125 0.234375V1.875H1.40625C0.629883 1.875 0 2.50488 0 3.28125V13.5938C0 14.3701 0.629883 15 1.40625 15H11.7188C12.4951 15 13.125 14.3701 13.125 13.5938V3.28125C13.125 2.50488 12.4951 1.875 11.7188 1.875ZM12.1875 13.5938C12.1875 13.8516 11.9766 14.0625 11.7188 14.0625H1.40625C1.14844 14.0625 0.9375 13.8516 0.9375 13.5938V5.625H12.1875V13.5938ZM12.1875 4.6875H0.9375V3.28125C0.9375 3.02344 1.14844 2.8125 1.40625 2.8125H11.7188C11.9766 2.8125 12.1875 3.02344 12.1875 3.28125V4.6875ZM3.28125 11.25H6.09375C6.35156 11.25 6.5625 11.0391 6.5625 10.7812V7.96875C6.5625 7.71094 6.35156 7.5 6.09375 7.5H3.28125C3.02344 7.5 2.8125 7.71094 2.8125 7.96875V10.7812C2.8125 11.0391 3.02344 11.25 3.28125 11.25ZM3.75 8.4375H5.625V10.3125H3.75V8.4375Z" fill="#0E9888"/>
</g>
<defs>
<clipPath id="clip0_4_287">
<rect width="13.125" height="15" fill="white"/>
</clipPath>
</defs>
</svg>
