<svg width="14" height="15" viewBox="0 0 14 15" fill="none" xmlns="http://www.w3.org/2000/svg">
<g clip-path="url(#clip0_4_312)">
<path d="M11.7188 1.875H10.3125V0.351562C10.3125 0.158203 10.1543 0 9.96094 0H9.72656C9.5332 0 9.375 0.158203 9.375 0.351562V1.875H3.75V0.351562C3.75 0.158203 3.5918 0 3.39844 0H3.16406C2.9707 0 2.8125 0.158203 2.8125 0.351562V1.875H1.40625C0.629883 1.875 0 2.50488 0 3.28125V13.5938C0 14.3701 0.629883 15 1.40625 15H11.7188C12.4951 15 13.125 14.3701 13.125 13.5938V3.28125C13.125 2.50488 12.4951 1.875 11.7188 1.875ZM1.40625 2.8125H11.7188C11.9766 2.8125 12.1875 3.02344 12.1875 3.28125V4.6875H0.9375V3.28125C0.9375 3.02344 1.14844 2.8125 1.40625 2.8125ZM11.7188 14.0625H1.40625C1.14844 14.0625 0.9375 13.8516 0.9375 13.5938V5.625H12.1875V13.5938C12.1875 13.8516 11.9766 14.0625 11.7188 14.0625ZM7.49121 7.90137L8.50488 8.91504C8.56641 8.97656 8.56641 9.07324 8.50488 9.13184L4.66113 12.9756L3.63281 13.1221C3.43066 13.1514 3.25488 12.9785 3.28418 12.7734L3.43066 11.7451L7.27441 7.90137C7.33301 7.84277 7.43262 7.84277 7.49121 7.90137ZM9.69434 7.94238L9.13184 8.50488C9.07031 8.56641 8.97363 8.56641 8.91504 8.50488L7.90137 7.49121C7.83984 7.42969 7.83984 7.33301 7.90137 7.27441L8.46387 6.71191C8.66309 6.5127 8.98828 6.5127 9.1875 6.71191L9.69434 7.21875C9.89355 7.41797 9.89355 7.74316 9.69434 7.94238Z" fill="#0E9888"/>
</g>
<defs>
<clipPath id="clip0_4_312">
<rect width="13.125" height="15" fill="white"/>
</clipPath>
</defs>
</svg>
