<svg width="14" height="15" viewBox="0 0 14 15" fill="none" xmlns="http://www.w3.org/2000/svg">
<g clip-path="url(#clip0_4_281)">
<path d="M4.38867 10.8105L4.15723 12.167C4.10449 12.4775 4.23047 12.7852 4.48535 12.9697C4.62891 13.0723 4.79883 13.1279 4.96582 13.1279C5.09473 13.1279 5.22656 13.0957 5.34668 13.0312L6.5625 12.3926L7.77832 13.0312C8.05664 13.1777 8.3877 13.1543 8.64258 12.9697C8.89746 12.7852 9.02344 12.4775 8.9707 12.167L8.73926 10.8105L9.7207 9.85254C9.94629 9.63281 10.0254 9.31055 9.92871 9.01172C9.83203 8.71289 9.57715 8.49902 9.2666 8.45508L7.90723 8.25586L7.30078 7.02246C7.15723 6.73828 6.87598 6.5625 6.5625 6.5625C6.24902 6.5625 5.96777 6.73828 5.83008 7.01953L5.22363 8.25293L3.86426 8.45215C3.55371 8.49609 3.29883 8.70996 3.20215 9.00879C3.10547 9.30762 3.18457 9.62988 3.41016 9.84961L4.38867 10.8105ZM5.8418 9.1084L6.5625 7.64648L7.2832 9.1084L8.89453 9.34277L7.72852 10.4824L8.00391 12.0879L6.5625 11.332L5.12109 12.0908L5.39648 10.4854L4.23047 9.3457L5.8418 9.1084V9.1084ZM11.7188 1.875H10.3125V0.234375C10.3125 0.105469 10.207 0 10.0781 0H9.60938C9.48047 0 9.375 0.105469 9.375 0.234375V1.875H3.75V0.234375C3.75 0.105469 3.64453 0 3.51562 0H3.04688C2.91797 0 2.8125 0.105469 2.8125 0.234375V1.875H1.40625C0.629883 1.875 0 2.50488 0 3.28125V13.5938C0 14.3701 0.629883 15 1.40625 15H11.7188C12.4951 15 13.125 14.3701 13.125 13.5938V3.28125C13.125 2.50488 12.4951 1.875 11.7188 1.875ZM12.1875 13.5938C12.1875 13.8516 11.9766 14.0625 11.7188 14.0625H1.40625C1.14844 14.0625 0.9375 13.8516 0.9375 13.5938V5.625H12.1875V13.5938ZM12.1875 4.6875H0.9375V3.28125C0.9375 3.02344 1.14844 2.8125 1.40625 2.8125H11.7188C11.9766 2.8125 12.1875 3.02344 12.1875 3.28125V4.6875Z" fill="#0E9888"/>
</g>
<defs>
<clipPath id="clip0_4_281">
<rect width="13.125" height="15" fill="white"/>
</clipPath>
</defs>
</svg>
